<svg xmlns="http://www.w3.org/2000/svg" viewBox="0 0 640 420" width="640" height="420" role="img" aria-label="Chambres d'hôtes">
  <defs>
    <linearGradient id="sky" x1="0" y1="0" x2="0" y2="1">
      <stop offset="0%" stop-color="#FFFDF7"/><stop offset="58%" stop-color="#F6EFE2"/><stop offset="100%" stop-color="#EADFCB"/>
    </linearGradient>
    <linearGradient id="glow" x1="0" y1="0" x2="1" y2="1">
      <stop offset="0%" stop-color="#FFFFFF" stop-opacity=".9"/><stop offset="100%" stop-color="#FFFFFF" stop-opacity="0"/>
    </linearGradient>
  </defs>
  <rect width="640" height="420" fill="url(#sky)"/>
  <circle cx="500" cy="96" r="54" fill="#FFFFFF" opacity=".55"/>
  <rect width="640" height="420" fill="url(#glow)" opacity=".5"/>
  <g stroke="#B08D57" fill="none" stroke-width="1.4" stroke-linecap="round" stroke-linejoin="round" stroke-opacity=".85">
    <path d="M214 360V248h212v112"/>
    <path d="M190 248l130-62 130 62"/>
    <path d="M300 360v-58h40v58"/>
    <path d="M334 330a4 4 0 1 1 0 .1"/>
    <path d="M248 272h40v34h-40zM352 272h40v34h-40z"/>
    <path d="M268 272v34M372 272v34M248 289h40M352 289h40"/>
    <path d="M320 186v-24" stroke-width="1.1"/>
    <path d="M320 162a9 9 0 1 1 .1 0" stroke-width="1.1"/>
    <path d="M0 360h640"/>
    <path d="M126 360v-64"/>
    <path d="M126 296c-18 -6 -18 -34 0 -46 18 12 18 40 0 46Z"/>
    <path d="M500 360v-58"/>
    <path d="M500 302c-17 -6 -17 -34 0 -46 17 12 17 40 0 46Z"/>
    <path d="M556 360v-44"/>
    <path d="M556 316c-13 -6 -13 -34 0 -46 13 12 13 40 0 46Z"/>
  </g>
  <g stroke="#C9AE7C" stroke-width="1" stroke-opacity=".5" fill="none">
    <path d="M0 372h640"/>
    <path d="M0 372c12 0 12 12 24 12s12-12 24-12 12 12 24 12 12-12 24-12 12 12 24 12 12-12 24-12 12 12 24 12 12-12 24-12 12 12 24 12 12-12 24-12 12 12 24 12 12-12 24-12 12 12 24 12 12-12 24-12 12 12 24 12 12-12 24-12 12 12 24 12 12-12 24-12 12 12 24 12 12-12 24-12 12 12 24 12 12-12 24-12 12 12 24 12 12-12 24-12" stroke-opacity=".35"/>
  </g>
</svg>
